<svg xmlns="http://www.w3.org/2000/svg" xmlns:xlink="http://www.w3.org/1999/xlink" width="200" zoomAndPan="magnify" viewBox="0 0 768 767.999994" height="200" preserveAspectRatio="xMidYMid meet" version="1.0"><defs><clipPath id="7d81ab2905"><path d="M 54.855469 54.855469 L 712.605469 54.855469 L 712.605469 712.605469 L 54.855469 712.605469 Z M 54.855469 54.855469 " clip-rule="nonzero"/></clipPath><clipPath id="4d00e5b060"><path d="M 674.238281 109.667969 L 506.65625 109.667969 L 484.503906 87.515625 C 480.949219 83.957031 475.425781 83.277344 471.113281 85.867188 L 443.816406 102.242188 C 437.449219 98.972656 430.828125 96.226562 424.011719 94.039062 L 416.292969 63.160156 C 415.074219 58.28125 410.6875 54.855469 405.65625 54.855469 L 361.808594 54.855469 C 356.777344 54.855469 352.390625 58.28125 351.171875 63.160156 L 343.453125 94.039062 C 336.636719 96.226562 330.011719 98.972656 323.648438 102.242188 L 296.351562 85.867188 C 292.039062 83.28125 286.519531 83.957031 282.960938 87.515625 L 260.808594 109.667969 L 93.226562 109.667969 C 72.070312 109.667969 54.855469 126.882812 54.855469 148.039062 L 54.855469 531.726562 C 54.855469 552.882812 72.070312 570.09375 93.226562 570.09375 L 321.90625 570.09375 C 318.148438 589.480469 308.703125 607.691406 294.066406 622.332031 L 291.492188 624.90625 L 276.660156 624.90625 C 257.292969 624.90625 240.164062 637.253906 234.039062 655.625 L 223.726562 686.570312 C 221.722656 692.585938 222.738281 699.25 226.445312 704.394531 C 230.152344 709.535156 236.152344 712.609375 242.492188 712.609375 L 524.972656 712.609375 C 531.3125 712.609375 537.3125 709.539062 541.019531 704.394531 C 544.726562 699.25 545.742188 692.585938 543.738281 686.570312 L 533.421875 655.628906 C 527.296875 637.253906 510.171875 624.90625 490.800781 624.90625 L 475.972656 624.90625 L 473.394531 622.332031 C 458.757812 607.695312 449.347656 589.480469 445.609375 570.09375 L 674.238281 570.09375 C 695.394531 570.09375 712.605469 552.882812 712.605469 531.726562 L 712.605469 148.039062 C 712.605469 126.882812 695.394531 109.667969 674.238281 109.667969 Z M 288.710938 153.308594 L 273.507812 127.972656 L 292.410156 109.070312 L 317.746094 124.273438 C 321.167969 126.324219 325.429688 126.355469 328.882812 124.359375 C 337.191406 119.546875 346.113281 115.851562 355.394531 113.375 C 359.246094 112.347656 362.234375 109.308594 363.203125 105.441406 L 370.367188 76.78125 L 397.097656 76.78125 L 404.261719 105.441406 C 405.230469 109.308594 408.21875 112.347656 412.070312 113.375 C 421.351562 115.851562 430.273438 119.546875 438.582031 124.359375 C 442.035156 126.355469 446.296875 126.324219 449.71875 124.273438 L 475.050781 109.070312 L 493.953125 127.972656 L 478.753906 153.308594 C 476.699219 156.730469 476.667969 160.992188 478.667969 164.445312 C 483.480469 172.757812 487.175781 181.675781 489.652344 190.957031 C 490.679688 194.808594 493.71875 197.796875 497.585938 198.765625 L 526.246094 205.929688 L 526.246094 232.660156 L 497.585938 239.824219 C 493.71875 240.792969 490.679688 243.78125 489.652344 247.632812 C 487.175781 256.914062 483.480469 265.832031 478.664062 274.144531 C 476.667969 277.597656 476.699219 281.859375 478.753906 285.28125 L 493.953125 310.613281 L 475.050781 329.515625 L 449.714844 314.316406 C 446.296875 312.261719 442.035156 312.230469 438.582031 314.230469 C 430.273438 319.042969 421.351562 322.738281 412.070312 325.214844 C 408.21875 326.242188 405.230469 329.28125 404.261719 333.148438 L 397.097656 361.808594 L 370.367188 361.808594 L 363.203125 333.148438 C 362.234375 329.28125 359.246094 326.242188 355.394531 325.214844 C 346.113281 322.738281 337.191406 319.042969 328.882812 314.230469 C 325.429688 312.230469 321.167969 312.261719 317.746094 314.316406 L 292.410156 329.515625 L 273.507812 310.613281 L 288.710938 285.28125 C 290.761719 281.859375 290.792969 277.597656 288.796875 274.144531 C 283.984375 265.835938 280.289062 256.914062 277.8125 247.632812 C 276.785156 243.78125 273.746094 240.792969 269.878906 239.824219 L 241.21875 232.660156 L 241.21875 205.929688 L 269.878906 198.765625 C 273.746094 197.796875 276.785156 194.808594 277.8125 190.957031 C 280.289062 181.675781 283.984375 172.753906 288.796875 164.445312 C 290.796875 160.992188 290.761719 156.730469 288.710938 153.308594 Z M 536.230469 252.761719 L 537.871094 259.316406 C 538.835938 263.1875 541.828125 266.222656 545.679688 267.25 C 552.039062 268.949219 558.15625 271.480469 563.855469 274.78125 C 567.304688 276.78125 571.566406 276.746094 574.988281 274.695312 L 590.988281 265.097656 L 601.03125 275.140625 L 591.429688 291.140625 C 589.378906 294.558594 589.347656 298.820312 591.34375 302.273438 C 594.644531 307.972656 597.179688 314.085938 598.875 320.445312 C 599.902344 324.300781 602.941406 327.289062 606.808594 328.257812 L 624.90625 332.78125 L 624.90625 346.984375 L 606.808594 351.507812 C 602.941406 352.472656 599.902344 355.464844 598.875 359.316406 C 597.179688 365.675781 594.644531 371.792969 591.34375 377.492188 C 589.347656 380.941406 589.378906 385.207031 591.429688 388.625 L 601.03125 404.625 L 590.988281 414.667969 L 574.988281 405.066406 C 571.566406 403.015625 567.304688 402.980469 563.855469 404.980469 C 558.15625 408.28125 552.039062 410.816406 545.679688 412.511719 C 541.828125 413.539062 538.835938 416.578125 537.871094 420.445312 L 533.347656 438.542969 L 519.144531 438.542969 L 514.621094 420.445312 C 513.652344 416.578125 510.664062 413.539062 506.8125 412.511719 C 500.453125 410.816406 494.335938 408.28125 488.636719 404.980469 C 485.183594 402.980469 480.921875 403.015625 477.503906 405.066406 L 461.503906 414.667969 L 451.460938 404.625 L 461.058594 388.625 C 463.113281 385.207031 463.144531 380.941406 461.148438 377.492188 C 457.84375 371.792969 455.3125 365.675781 453.617188 359.316406 C 452.585938 355.464844 449.550781 352.472656 445.679688 351.507812 L 427.582031 346.984375 L 427.582031 343.324219 C 433.140625 341.359375 438.570312 339.042969 443.816406 336.34375 L 460.804688 346.539062 C 464.152344 379.691406 492.222656 405.65625 526.246094 405.65625 C 562.511719 405.65625 592.019531 376.148438 592.019531 339.882812 C 592.019531 303.613281 562.511719 274.105469 526.246094 274.105469 C 517.242188 274.105469 508.667969 275.9375 500.851562 279.234375 C 504.09375 272.914062 506.816406 266.335938 508.988281 259.574219 Z M 515.511719 320.066406 C 519.066406 316.507812 519.746094 310.988281 517.160156 306.675781 L 512.179688 298.375 C 516.597656 296.871094 521.324219 296.03125 526.246094 296.03125 C 550.421875 296.03125 570.09375 315.703125 570.09375 339.882812 C 570.09375 364.0625 550.421875 383.730469 526.246094 383.730469 C 506.09375 383.730469 489.085938 370.066406 483.976562 351.519531 C 484.148438 351.367188 484.335938 351.238281 484.503906 351.074219 Z M 154.195312 366.527344 C 150.894531 360.832031 148.359375 354.714844 146.664062 348.355469 C 145.636719 344.503906 142.597656 341.511719 138.730469 340.546875 L 120.632812 336.023438 L 120.632812 321.820312 L 138.730469 317.296875 C 142.597656 316.328125 145.636719 313.335938 146.664062 309.484375 C 148.359375 303.125 150.894531 297.011719 154.195312 291.3125 C 156.191406 287.859375 156.160156 283.597656 154.109375 280.175781 L 144.507812 264.179688 L 154.550781 254.136719 L 170.550781 263.734375 C 173.96875 265.785156 178.234375 265.820312 181.683594 263.820312 C 187.382812 260.519531 193.5 257.988281 199.859375 256.289062 C 203.710938 255.261719 206.703125 252.226562 207.667969 248.355469 L 212.191406 230.257812 L 219.292969 230.257812 L 219.292969 241.21875 C 219.292969 246.25 222.71875 250.636719 227.597656 251.855469 L 258.476562 259.574219 C 260.664062 266.386719 263.410156 273.011719 266.683594 279.378906 L 265.164062 281.914062 C 253.308594 270.328125 237.140625 263.144531 219.292969 263.144531 C 183.027344 263.144531 153.519531 292.652344 153.519531 328.917969 C 153.519531 365.1875 183.027344 394.695312 219.292969 394.695312 C 248.273438 394.695312 272.921875 375.847656 281.660156 349.769531 L 282.960938 351.070312 C 284.917969 353.027344 287.46875 354.078125 290.085938 354.230469 C 288.5625 358.488281 286.667969 362.609375 284.394531 366.527344 C 282.398438 369.980469 282.429688 374.242188 284.480469 377.664062 L 294.082031 393.664062 L 284.039062 403.707031 L 268.039062 394.105469 C 264.617188 392.050781 260.355469 392.019531 256.90625 394.019531 C 251.207031 397.320312 245.089844 399.855469 238.730469 401.550781 C 234.878906 402.578125 231.886719 405.617188 230.921875 409.484375 L 226.398438 427.582031 L 212.195312 427.582031 L 207.671875 409.484375 C 206.703125 405.617188 203.710938 402.578125 199.859375 401.550781 C 193.5 399.855469 187.386719 397.320312 181.6875 394.019531 C 178.234375 392.019531 173.972656 392.050781 170.550781 394.105469 L 154.554688 403.707031 L 144.511719 393.664062 L 154.109375 377.664062 C 156.160156 374.242188 156.191406 369.980469 154.195312 366.527344 Z M 251.953125 320.066406 L 263.085938 331.195312 C 261.894531 354.324219 242.710938 372.769531 219.292969 372.769531 C 195.117188 372.769531 175.445312 353.097656 175.445312 328.917969 C 175.445312 304.742188 195.117188 285.070312 219.292969 285.070312 C 233.085938 285.070312 245.386719 291.488281 253.425781 301.472656 L 250.304688 306.675781 C 247.71875 310.988281 248.398438 316.507812 251.953125 320.066406 Z M 93.226562 131.59375 L 250.148438 131.59375 C 250.207031 131.699219 250.242188 131.8125 250.304688 131.914062 L 266.683594 159.210938 C 263.410156 165.574219 260.664062 172.199219 258.476562 179.015625 L 227.597656 186.734375 C 222.71875 187.953125 219.292969 192.339844 219.292969 197.371094 L 219.292969 208.332031 L 203.632812 208.332031 C 198.601562 208.332031 194.21875 211.757812 193 216.636719 L 187.902344 237.019531 C 184.011719 238.347656 180.203125 239.925781 176.511719 241.742188 L 158.492188 230.929688 C 154.179688 228.339844 148.65625 229.019531 145.101562 232.578125 L 122.953125 254.726562 C 119.394531 258.28125 118.714844 263.804688 121.304688 268.117188 L 132.117188 286.136719 C 130.300781 289.828125 128.722656 293.636719 127.394531 297.527344 L 107.011719 302.625 C 102.128906 303.84375 98.707031 308.226562 98.707031 313.257812 L 98.707031 344.578125 C 98.707031 349.609375 102.132812 353.996094 107.011719 355.214844 L 127.394531 360.308594 C 128.722656 364.203125 130.300781 368.007812 132.117188 371.703125 L 121.304688 389.71875 C 118.714844 394.035156 119.394531 399.554688 122.953125 403.113281 L 145.101562 425.261719 C 148.65625 428.816406 154.179688 429.496094 158.492188 426.910156 L 176.511719 416.097656 C 180.203125 417.910156 184.011719 419.488281 187.902344 420.816406 L 193 441.203125 C 194.21875 446.082031 198.601562 449.503906 203.632812 449.503906 L 234.953125 449.503906 C 239.984375 449.503906 244.371094 446.082031 245.589844 441.203125 L 250.683594 420.816406 C 254.578125 419.488281 258.382812 417.910156 262.078125 416.097656 L 280.09375 426.910156 C 284.40625 429.496094 289.929688 428.820312 293.488281 425.261719 L 315.636719 403.113281 C 319.191406 399.554688 319.871094 394.035156 317.285156 389.71875 L 306.472656 371.703125 C 308.285156 368.007812 309.863281 364.203125 311.191406 360.308594 L 331.578125 355.214844 C 336.457031 353.996094 339.878906 349.609375 339.878906 344.578125 L 339.878906 343.320312 C 341.066406 343.742188 342.253906 344.164062 343.453125 344.550781 L 351.171875 375.429688 C 352.390625 380.308594 356.773438 383.730469 361.804688 383.730469 L 405.65625 383.730469 C 410.6875 383.730469 415.070312 380.308594 416.289062 375.429688 L 418.328125 367.269531 L 434.34375 371.273438 C 435.671875 375.167969 437.25 378.972656 439.0625 382.667969 L 428.25 400.683594 C 425.664062 405 426.34375 410.519531 429.898438 414.078125 L 452.046875 436.226562 C 455.605469 439.78125 461.125 440.460938 465.441406 437.875 L 483.457031 427.0625 C 487.152344 428.875 490.957031 430.453125 494.851562 431.78125 L 499.945312 452.164062 C 501.164062 457.046875 505.550781 460.46875 510.582031 460.46875 L 541.902344 460.46875 C 546.933594 460.46875 551.316406 457.046875 552.535156 452.164062 L 557.632812 431.78125 C 561.523438 430.453125 565.332031 428.875 569.023438 427.0625 L 587.042969 437.875 C 591.355469 440.460938 596.878906 439.785156 600.433594 436.226562 L 622.582031 414.078125 C 626.140625 410.519531 626.820312 405 624.230469 400.683594 L 613.417969 382.667969 C 615.234375 378.972656 616.8125 375.167969 618.140625 371.273438 L 638.523438 366.179688 C 643.40625 364.957031 646.828125 360.574219 646.828125 355.542969 L 646.828125 324.222656 C 646.828125 319.191406 643.402344 314.808594 638.523438 313.585938 L 618.140625 308.492188 C 616.8125 304.597656 615.234375 300.792969 613.417969 297.101562 L 624.230469 279.082031 C 626.820312 274.769531 626.140625 269.246094 622.582031 265.6875 L 600.433594 243.539062 C 596.875 239.984375 591.355469 239.300781 587.042969 241.890625 L 569.023438 252.703125 C 565.332031 250.890625 561.523438 249.3125 557.632812 247.984375 L 552.535156 227.601562 C 551.878906 224.960938 550.277344 222.765625 548.164062 221.292969 L 548.164062 197.371094 C 548.164062 192.339844 544.742188 187.953125 539.863281 186.734375 L 508.984375 179.015625 C 506.796875 172.199219 504.050781 165.574219 500.777344 159.210938 L 517.152344 131.914062 C 517.214844 131.8125 517.253906 131.699219 517.3125 131.59375 L 674.238281 131.59375 C 683.304688 131.59375 690.683594 138.972656 690.683594 148.039062 L 690.683594 482.394531 L 76.78125 482.394531 L 76.78125 148.039062 C 76.78125 138.972656 84.160156 131.59375 93.226562 131.59375 Z M 512.625 662.5625 L 521.996094 690.683594 L 245.46875 690.683594 L 254.839844 662.5625 C 257.976562 653.152344 266.746094 646.832031 276.664062 646.832031 L 490.804688 646.832031 C 500.71875 646.832031 509.488281 653.152344 512.625 662.5625 Z M 446.625 624.90625 L 320.78125 624.90625 C 333.144531 608.609375 341.09375 589.792969 344.207031 570.09375 L 423.308594 570.09375 C 426.40625 589.785156 434.289062 608.613281 446.625 624.90625 Z M 674.238281 548.167969 L 93.226562 548.167969 C 84.160156 548.167969 76.78125 540.792969 76.78125 531.726562 L 76.78125 504.320312 L 690.683594 504.320312 L 690.683594 531.726562 C 690.683594 540.792969 683.304688 548.167969 674.238281 548.167969 Z M 449.507812 526.246094 C 449.507812 532.296875 444.597656 537.207031 438.542969 537.207031 L 328.917969 537.207031 C 322.867188 537.207031 317.957031 532.296875 317.957031 526.246094 C 317.957031 520.191406 322.867188 515.28125 328.917969 515.28125 L 438.542969 515.28125 C 444.597656 515.28125 449.507812 520.191406 449.507812 526.246094 Z M 668.757812 526.246094 C 668.757812 532.296875 663.847656 537.207031 657.792969 537.207031 L 635.871094 537.207031 C 629.816406 537.207031 624.90625 532.296875 624.90625 526.246094 C 624.90625 520.191406 629.816406 515.28125 635.871094 515.28125 L 657.792969 515.28125 C 663.847656 515.28125 668.757812 520.191406 668.757812 526.246094 Z M 613.945312 526.246094 C 613.945312 532.296875 609.035156 537.207031 602.980469 537.207031 L 581.058594 537.207031 C 575.003906 537.207031 570.09375 532.296875 570.09375 526.246094 C 570.09375 520.191406 575.003906 515.28125 581.058594 515.28125 L 602.980469 515.28125 C 609.035156 515.28125 613.945312 520.191406 613.945312 526.246094 Z M 559.132812 526.246094 C 559.132812 532.296875 554.222656 537.207031 548.167969 537.207031 L 526.246094 537.207031 C 520.191406 537.207031 515.28125 532.296875 515.28125 526.246094 C 515.28125 520.191406 520.191406 515.28125 526.246094 515.28125 L 548.167969 515.28125 C 554.222656 515.28125 559.132812 520.191406 559.132812 526.246094 Z M 120.660156 526.246094 C 120.660156 532.296875 115.75 537.207031 109.695312 537.207031 C 103.644531 537.207031 98.726562 532.296875 98.726562 526.246094 C 98.726562 520.191406 103.628906 515.28125 109.683594 515.28125 L 109.695312 515.28125 C 115.75 515.28125 120.660156 520.191406 120.660156 526.246094 Z M 153.546875 526.246094 C 153.546875 532.296875 148.636719 537.207031 142.585938 537.207031 C 136.53125 537.207031 131.613281 532.296875 131.613281 526.246094 C 131.613281 520.191406 136.515625 515.28125 142.570312 515.28125 L 142.585938 515.28125 C 148.636719 515.28125 153.546875 520.191406 153.546875 526.246094 Z M 186.433594 526.246094 C 186.433594 532.296875 181.527344 537.207031 175.472656 537.207031 C 169.417969 537.207031 164.503906 532.296875 164.503906 526.246094 C 164.503906 520.191406 169.40625 515.28125 175.457031 515.28125 L 175.472656 515.28125 C 181.527344 515.28125 186.433594 520.191406 186.433594 526.246094 Z M 383.730469 306.996094 C 432.089844 306.996094 471.433594 267.652344 471.433594 219.292969 C 471.433594 170.9375 432.089844 131.59375 383.730469 131.59375 C 335.375 131.59375 296.03125 170.9375 296.03125 219.292969 C 296.03125 267.652344 335.375 306.996094 383.730469 306.996094 Z M 383.730469 153.519531 C 420 153.519531 449.507812 183.027344 449.507812 219.292969 C 449.507812 255.5625 420 285.070312 383.730469 285.070312 C 347.464844 285.070312 317.957031 255.5625 317.957031 219.292969 C 317.957031 183.027344 347.464844 153.519531 383.730469 153.519531 Z M 383.730469 153.519531 " clip-rule="nonzero"/></clipPath><linearGradient x1="0.0000217567" gradientTransform="matrix(1.370313, 0, 0, 1.370313, 32.932147, 32.93215)" y1="479.999987" x2="479.999977" gradientUnits="userSpaceOnUse" y2="0.0000318683" id="cd7fdff7ef"><stop stop-opacity="1" stop-color="rgb(36.898804%, 73.699951%, 89.7995%)" offset="0"/><stop stop-opacity="1" stop-color="rgb(36.898804%, 73.699951%, 89.7995%)" offset="0.125"/><stop stop-opacity="1" stop-color="rgb(37.19635%, 73.469543%, 89.802551%)" offset="0.128906"/><stop stop-opacity="1" stop-color="rgb(37.495422%, 73.239136%, 89.805603%)" offset="0.132812"/><stop stop-opacity="1" stop-color="rgb(37.811279%, 72.994995%, 89.808655%)" offset="0.136719"/><stop stop-opacity="1" stop-color="rgb(38.127136%, 72.75238%, 89.813232%)" offset="0.140625"/><stop stop-opacity="1" stop-color="rgb(38.442993%, 72.50824%, 89.816284%)" offset="0.144531"/><stop stop-opacity="1" stop-color="rgb(38.75885%, 72.265625%, 89.820862%)" offset="0.148437"/><stop stop-opacity="1" stop-color="rgb(39.074707%, 72.021484%, 89.823914%)" offset="0.152344"/><stop stop-opacity="1" stop-color="rgb(39.390564%, 71.77887%, 89.828491%)" offset="0.15625"/><stop stop-opacity="1" stop-color="rgb(39.706421%, 71.534729%, 89.831543%)" offset="0.160156"/><stop stop-opacity="1" stop-color="rgb(40.022278%, 71.290588%, 89.836121%)" offset="0.164062"/><stop stop-opacity="1" stop-color="rgb(40.338135%, 71.046448%, 89.839172%)" offset="0.167969"/><stop stop-opacity="1" stop-color="rgb(40.653992%, 70.803833%, 89.842224%)" offset="0.171875"/><stop stop-opacity="1" stop-color="rgb(40.969849%, 70.559692%, 89.845276%)" offset="0.175781"/><stop stop-opacity="1" stop-color="rgb(41.285706%, 70.317078%, 89.849854%)" offset="0.179687"/><stop stop-opacity="1" stop-color="rgb(41.601562%, 70.072937%, 89.852905%)" offset="0.183594"/><stop stop-opacity="1" stop-color="rgb(41.917419%, 69.830322%, 89.857483%)" offset="0.1875"/><stop stop-opacity="1" stop-color="rgb(42.233276%, 69.586182%, 89.860535%)" offset="0.191406"/><stop stop-opacity="1" stop-color="rgb(42.549133%, 69.343567%, 89.865112%)" offset="0.195312"/><stop stop-opacity="1" stop-color="rgb(42.86499%, 69.099426%, 89.868164%)" offset="0.199219"/><stop stop-opacity="1" stop-color="rgb(43.180847%, 68.855286%, 89.872742%)" offset="0.203125"/><stop stop-opacity="1" stop-color="rgb(43.496704%, 68.611145%, 89.875793%)" offset="0.207031"/><stop stop-opacity="1" stop-color="rgb(43.812561%, 68.36853%, 89.878845%)" offset="0.210938"/><stop stop-opacity="1" stop-color="rgb(44.128418%, 68.12439%, 89.881897%)" offset="0.214844"/><stop stop-opacity="1" stop-color="rgb(44.444275%, 67.881775%, 89.886475%)" offset="0.21875"/><stop stop-opacity="1" stop-color="rgb(44.760132%, 67.637634%, 89.889526%)" offset="0.222656"/><stop stop-opacity="1" stop-color="rgb(45.075989%, 67.39502%, 89.894104%)" offset="0.226562"/><stop stop-opacity="1" stop-color="rgb(45.391846%, 67.150879%, 89.897156%)" offset="0.230469"/><stop stop-opacity="1" stop-color="rgb(45.707703%, 66.908264%, 89.901733%)" offset="0.234375"/><stop stop-opacity="1" stop-color="rgb(46.02356%, 66.664124%, 89.904785%)" offset="0.238281"/><stop stop-opacity="1" stop-color="rgb(46.339417%, 66.419983%, 89.909363%)" offset="0.242188"/><stop stop-opacity="1" stop-color="rgb(46.655273%, 66.175842%, 89.912415%)" offset="0.246094"/><stop stop-opacity="1" stop-color="rgb(46.97113%, 65.933228%, 89.915466%)" offset="0.25"/><stop stop-opacity="1" stop-color="rgb(47.286987%, 65.689087%, 89.918518%)" offset="0.253906"/><stop stop-opacity="1" stop-color="rgb(47.602844%, 65.446472%, 89.923096%)" offset="0.257812"/><stop stop-opacity="1" stop-color="rgb(47.918701%, 65.202332%, 89.926147%)" offset="0.261719"/><stop stop-opacity="1" stop-color="rgb(48.234558%, 64.959717%, 89.930725%)" offset="0.265625"/><stop stop-opacity="1" stop-color="rgb(48.550415%, 64.715576%, 89.933777%)" offset="0.269531"/><stop stop-opacity="1" stop-color="rgb(48.866272%, 64.471436%, 89.938354%)" offset="0.273437"/><stop stop-opacity="1" stop-color="rgb(49.182129%, 64.227295%, 89.941406%)" offset="0.277344"/><stop stop-opacity="1" stop-color="rgb(49.497986%, 63.98468%, 89.945984%)" offset="0.28125"/><stop stop-opacity="1" stop-color="rgb(49.813843%, 63.74054%, 89.949036%)" offset="0.285156"/><stop stop-opacity="1" stop-color="rgb(50.1297%, 63.497925%, 89.952087%)" offset="0.289062"/><stop stop-opacity="1" stop-color="rgb(50.445557%, 63.253784%, 89.955139%)" offset="0.292969"/><stop stop-opacity="1" stop-color="rgb(50.761414%, 63.011169%, 89.959717%)" offset="0.296875"/><stop stop-opacity="1" stop-color="rgb(51.077271%, 62.767029%, 89.962769%)" offset="0.300781"/><stop stop-opacity="1" stop-color="rgb(51.393127%, 62.524414%, 89.967346%)" offset="0.304688"/><stop stop-opacity="1" stop-color="rgb(51.708984%, 62.280273%, 89.970398%)" offset="0.308594"/><stop stop-opacity="1" stop-color="rgb(52.024841%, 62.036133%, 89.974976%)" offset="0.3125"/><stop stop-opacity="1" stop-color="rgb(52.340698%, 61.791992%, 89.978027%)" offset="0.316406"/><stop stop-opacity="1" stop-color="rgb(52.656555%, 61.549377%, 89.982605%)" offset="0.320312"/><stop stop-opacity="1" stop-color="rgb(52.972412%, 61.305237%, 89.985657%)" offset="0.324219"/><stop stop-opacity="1" stop-color="rgb(53.288269%, 61.062622%, 89.988708%)" offset="0.328125"/><stop stop-opacity="1" stop-color="rgb(53.604126%, 60.818481%, 89.99176%)" offset="0.332031"/><stop stop-opacity="1" stop-color="rgb(53.919983%, 60.575867%, 89.996338%)" offset="0.335938"/><stop stop-opacity="1" stop-color="rgb(54.23584%, 60.331726%, 89.99939%)" offset="0.339844"/><stop stop-opacity="1" stop-color="rgb(54.551697%, 60.089111%, 90.003967%)" offset="0.34375"/><stop stop-opacity="1" stop-color="rgb(54.867554%, 59.844971%, 90.007019%)" offset="0.347656"/><stop stop-opacity="1" stop-color="rgb(55.183411%, 59.60083%, 90.011597%)" offset="0.351562"/><stop stop-opacity="1" stop-color="rgb(55.499268%, 59.356689%, 90.014648%)" offset="0.355469"/><stop stop-opacity="1" stop-color="rgb(55.815125%, 59.114075%, 90.019226%)" offset="0.359375"/><stop stop-opacity="1" stop-color="rgb(56.130981%, 58.869934%, 90.022278%)" offset="0.363281"/><stop stop-opacity="1" stop-color="rgb(56.446838%, 58.627319%, 90.02533%)" offset="0.367187"/><stop stop-opacity="1" stop-color="rgb(56.762695%, 58.383179%, 90.028381%)" offset="0.371094"/><stop stop-opacity="1" stop-color="rgb(57.078552%, 58.140564%, 90.032959%)" offset="0.375"/><stop stop-opacity="1" stop-color="rgb(57.394409%, 57.896423%, 90.036011%)" offset="0.378906"/><stop stop-opacity="1" stop-color="rgb(57.710266%, 57.653809%, 90.040588%)" offset="0.382812"/><stop stop-opacity="1" stop-color="rgb(58.026123%, 57.409668%, 90.04364%)" offset="0.386719"/><stop stop-opacity="1" stop-color="rgb(58.34198%, 57.165527%, 90.048218%)" offset="0.390625"/><stop stop-opacity="1" stop-color="rgb(58.657837%, 56.921387%, 90.05127%)" offset="0.394531"/><stop stop-opacity="1" stop-color="rgb(58.973694%, 56.678772%, 90.055847%)" offset="0.398438"/><stop stop-opacity="1" stop-color="rgb(59.289551%, 56.434631%, 90.058899%)" offset="0.402344"/><stop stop-opacity="1" stop-color="rgb(59.605408%, 56.192017%, 90.061951%)" offset="0.40625"/><stop stop-opacity="1" stop-color="rgb(59.921265%, 55.947876%, 90.065002%)" offset="0.410156"/><stop stop-opacity="1" stop-color="rgb(60.237122%, 55.705261%, 90.06958%)" offset="0.414062"/><stop stop-opacity="1" stop-color="rgb(60.552979%, 55.461121%, 90.072632%)" offset="0.417969"/><stop stop-opacity="1" stop-color="rgb(60.868835%, 55.218506%, 90.077209%)" offset="0.421875"/><stop stop-opacity="1" stop-color="rgb(61.184692%, 54.974365%, 90.080261%)" offset="0.425781"/><stop stop-opacity="1" stop-color="rgb(61.500549%, 54.730225%, 90.084839%)" offset="0.429688"/><stop stop-opacity="1" stop-color="rgb(61.816406%, 54.486084%, 90.087891%)" offset="0.433594"/><stop stop-opacity="1" stop-color="rgb(62.132263%, 54.243469%, 90.092468%)" offset="0.4375"/><stop stop-opacity="1" stop-color="rgb(62.44812%, 53.999329%, 90.09552%)" offset="0.441406"/><stop stop-opacity="1" stop-color="rgb(62.763977%, 53.756714%, 90.098572%)" offset="0.445312"/><stop stop-opacity="1" stop-color="rgb(63.079834%, 53.512573%, 90.101624%)" offset="0.449219"/><stop stop-opacity="1" stop-color="rgb(63.395691%, 53.269958%, 90.106201%)" offset="0.453125"/><stop stop-opacity="1" stop-color="rgb(63.711548%, 53.025818%, 90.109253%)" offset="0.457031"/><stop stop-opacity="1" stop-color="rgb(64.027405%, 52.783203%, 90.113831%)" offset="0.460937"/><stop stop-opacity="1" stop-color="rgb(64.343262%, 52.539062%, 90.116882%)" offset="0.464844"/><stop stop-opacity="1" stop-color="rgb(64.659119%, 52.294922%, 90.12146%)" offset="0.46875"/><stop stop-opacity="1" stop-color="rgb(64.974976%, 52.050781%, 90.124512%)" offset="0.472656"/><stop stop-opacity="1" stop-color="rgb(65.290833%, 51.808167%, 90.129089%)" offset="0.476562"/><stop stop-opacity="1" stop-color="rgb(65.606689%, 51.564026%, 90.132141%)" offset="0.480469"/><stop stop-opacity="1" stop-color="rgb(65.922546%, 51.321411%, 90.135193%)" offset="0.484375"/><stop stop-opacity="1" stop-color="rgb(66.238403%, 51.077271%, 90.138245%)" offset="0.488281"/><stop stop-opacity="1" stop-color="rgb(66.55426%, 50.834656%, 90.142822%)" offset="0.492187"/><stop stop-opacity="1" stop-color="rgb(66.870117%, 50.590515%, 90.145874%)" offset="0.496094"/><stop stop-opacity="1" stop-color="rgb(67.185974%, 50.3479%, 90.150452%)" offset="0.5"/><stop stop-opacity="1" stop-color="rgb(67.501831%, 50.10376%, 90.153503%)" offset="0.503906"/><stop stop-opacity="1" stop-color="rgb(67.817688%, 49.859619%, 90.158081%)" offset="0.507812"/><stop stop-opacity="1" stop-color="rgb(68.133545%, 49.615479%, 90.161133%)" offset="0.511719"/><stop stop-opacity="1" stop-color="rgb(68.449402%, 49.372864%, 90.16571%)" offset="0.515625"/><stop stop-opacity="1" stop-color="rgb(68.765259%, 49.128723%, 90.168762%)" offset="0.519531"/><stop stop-opacity="1" stop-color="rgb(69.081116%, 48.886108%, 90.171814%)" offset="0.523438"/><stop stop-opacity="1" stop-color="rgb(69.396973%, 48.641968%, 90.174866%)" offset="0.527344"/><stop stop-opacity="1" stop-color="rgb(69.71283%, 48.399353%, 90.179443%)" offset="0.53125"/><stop stop-opacity="1" stop-color="rgb(70.028687%, 48.155212%, 90.182495%)" offset="0.535156"/><stop stop-opacity="1" stop-color="rgb(70.344543%, 47.912598%, 90.187073%)" offset="0.539062"/><stop stop-opacity="1" stop-color="rgb(70.6604%, 47.668457%, 90.190125%)" offset="0.542969"/><stop stop-opacity="1" stop-color="rgb(70.976257%, 47.424316%, 90.194702%)" offset="0.546875"/><stop stop-opacity="1" stop-color="rgb(71.244812%, 47.2229%, 90.022278%)" offset="0.550781"/><stop stop-opacity="1" stop-color="rgb(71.513367%, 47.02301%, 89.851379%)" offset="0.554687"/><stop stop-opacity="1" stop-color="rgb(71.685791%, 46.908569%, 89.326477%)" offset="0.558594"/><stop stop-opacity="1" stop-color="rgb(71.859741%, 46.794128%, 88.803101%)" offset="0.5625"/><stop stop-opacity="1" stop-color="rgb(72.032166%, 46.679688%, 88.279724%)" offset="0.566406"/><stop stop-opacity="1" stop-color="rgb(72.20459%, 46.565247%, 87.756348%)" offset="0.570312"/><stop stop-opacity="1" stop-color="rgb(72.377014%, 46.450806%, 87.231445%)" offset="0.574219"/><stop stop-opacity="1" stop-color="rgb(72.549438%, 46.336365%, 86.708069%)" offset="0.578125"/><stop stop-opacity="1" stop-color="rgb(72.721863%, 46.221924%, 86.183167%)" offset="0.582031"/><stop stop-opacity="1" stop-color="rgb(72.894287%, 46.107483%, 85.65979%)" offset="0.585938"/><stop stop-opacity="1" stop-color="rgb(73.066711%, 45.993042%, 85.134888%)" offset="0.589844"/><stop stop-opacity="1" stop-color="rgb(73.240662%, 45.878601%, 84.611511%)" offset="0.59375"/><stop stop-opacity="1" stop-color="rgb(73.413086%, 45.76416%, 84.086609%)" offset="0.597656"/><stop stop-opacity="1" stop-color="rgb(73.58551%, 45.649719%, 83.563232%)" offset="0.601562"/><stop stop-opacity="1" stop-color="rgb(73.757935%, 45.535278%, 83.03833%)" offset="0.605469"/><stop stop-opacity="1" stop-color="rgb(73.930359%, 45.420837%, 82.514954%)" offset="0.609375"/><stop stop-opacity="1" stop-color="rgb(74.102783%, 45.306396%, 81.991577%)" offset="0.613281"/><stop stop-opacity="1" stop-color="rgb(74.276733%, 45.191956%, 81.468201%)" offset="0.617188"/><stop stop-opacity="1" stop-color="rgb(74.449158%, 45.077515%, 80.943298%)" offset="0.621094"/><stop stop-opacity="1" stop-color="rgb(74.621582%, 44.963074%, 80.419922%)" offset="0.625"/><stop stop-opacity="1" stop-color="rgb(74.794006%, 44.848633%, 79.89502%)" offset="0.628906"/><stop stop-opacity="1" stop-color="rgb(74.966431%, 44.734192%, 79.371643%)" offset="0.632812"/><stop stop-opacity="1" stop-color="rgb(75.138855%, 44.619751%, 78.846741%)" offset="0.636719"/><stop stop-opacity="1" stop-color="rgb(75.312805%, 44.50531%, 78.323364%)" offset="0.640625"/><stop stop-opacity="1" stop-color="rgb(75.485229%, 44.390869%, 77.798462%)" offset="0.644531"/><stop stop-opacity="1" stop-color="rgb(75.657654%, 44.276428%, 77.275085%)" offset="0.648437"/><stop stop-opacity="1" stop-color="rgb(75.830078%, 44.161987%, 76.751709%)" offset="0.652344"/><stop stop-opacity="1" stop-color="rgb(76.002502%, 44.047546%, 76.228333%)" offset="0.65625"/><stop stop-opacity="1" stop-color="rgb(76.174927%, 43.933105%, 75.70343%)" offset="0.660156"/><stop stop-opacity="1" stop-color="rgb(76.348877%, 43.818665%, 75.180054%)" offset="0.664062"/><stop stop-opacity="1" stop-color="rgb(76.521301%, 43.704224%, 74.655151%)" offset="0.667969"/><stop stop-opacity="1" stop-color="rgb(76.693726%, 43.589783%, 74.131775%)" offset="0.671875"/><stop stop-opacity="1" stop-color="rgb(76.86615%, 43.475342%, 73.606873%)" offset="0.675781"/><stop stop-opacity="1" stop-color="rgb(77.038574%, 43.360901%, 73.083496%)" offset="0.679688"/><stop stop-opacity="1" stop-color="rgb(77.210999%, 43.24646%, 72.558594%)" offset="0.683594"/><stop stop-opacity="1" stop-color="rgb(77.384949%, 43.132019%, 72.035217%)" offset="0.6875"/><stop stop-opacity="1" stop-color="rgb(77.557373%, 43.017578%, 71.510315%)" offset="0.691406"/><stop stop-opacity="1" stop-color="rgb(77.729797%, 42.903137%, 70.986938%)" offset="0.695312"/><stop stop-opacity="1" stop-color="rgb(77.902222%, 42.788696%, 70.463562%)" offset="0.699219"/><stop stop-opacity="1" stop-color="rgb(78.074646%, 42.674255%, 69.940186%)" offset="0.703125"/><stop stop-opacity="1" stop-color="rgb(78.24707%, 42.559814%, 69.415283%)" offset="0.707031"/><stop stop-opacity="1" stop-color="rgb(78.419495%, 42.445374%, 68.891907%)" offset="0.710938"/><stop stop-opacity="1" stop-color="rgb(78.591919%, 42.330933%, 68.367004%)" offset="0.714844"/><stop stop-opacity="1" stop-color="rgb(78.765869%, 42.216492%, 67.843628%)" offset="0.71875"/><stop stop-opacity="1" stop-color="rgb(78.938293%, 42.102051%, 67.318726%)" offset="0.722656"/><stop stop-opacity="1" stop-color="rgb(79.110718%, 41.98761%, 66.795349%)" offset="0.726562"/><stop stop-opacity="1" stop-color="rgb(79.283142%, 41.873169%, 66.270447%)" offset="0.730469"/><stop stop-opacity="1" stop-color="rgb(79.455566%, 41.758728%, 65.74707%)" offset="0.734375"/><stop stop-opacity="1" stop-color="rgb(79.627991%, 41.644287%, 65.223694%)" offset="0.738281"/><stop stop-opacity="1" stop-color="rgb(79.801941%, 41.529846%, 64.700317%)" offset="0.742187"/><stop stop-opacity="1" stop-color="rgb(79.974365%, 41.415405%, 64.175415%)" offset="0.746094"/><stop stop-opacity="1" stop-color="rgb(80.14679%, 41.300964%, 63.652039%)" offset="0.75"/><stop stop-opacity="1" stop-color="rgb(80.319214%, 41.186523%, 63.127136%)" offset="0.753906"/><stop stop-opacity="1" stop-color="rgb(80.491638%, 41.072083%, 62.60376%)" offset="0.757812"/><stop stop-opacity="1" stop-color="rgb(80.664062%, 40.957642%, 62.078857%)" offset="0.761719"/><stop stop-opacity="1" stop-color="rgb(80.838013%, 40.843201%, 61.555481%)" offset="0.765625"/><stop stop-opacity="1" stop-color="rgb(81.010437%, 40.72876%, 61.030579%)" offset="0.769531"/><stop stop-opacity="1" stop-color="rgb(81.182861%, 40.614319%, 60.507202%)" offset="0.773438"/><stop stop-opacity="1" stop-color="rgb(81.355286%, 40.499878%, 59.9823%)" offset="0.777344"/><stop stop-opacity="1" stop-color="rgb(81.52771%, 40.385437%, 59.458923%)" offset="0.78125"/><stop stop-opacity="1" stop-color="rgb(81.700134%, 40.270996%, 58.935547%)" offset="0.785156"/><stop stop-opacity="1" stop-color="rgb(81.874084%, 40.156555%, 58.41217%)" offset="0.789062"/><stop stop-opacity="1" stop-color="rgb(82.046509%, 40.042114%, 57.887268%)" offset="0.792969"/><stop stop-opacity="1" stop-color="rgb(82.218933%, 39.927673%, 57.363892%)" offset="0.796875"/><stop stop-opacity="1" stop-color="rgb(82.391357%, 39.813232%, 56.838989%)" offset="0.800781"/><stop stop-opacity="1" stop-color="rgb(82.563782%, 39.698792%, 56.315613%)" offset="0.804688"/><stop stop-opacity="1" stop-color="rgb(82.736206%, 39.584351%, 55.79071%)" offset="0.808594"/><stop stop-opacity="1" stop-color="rgb(82.90863%, 39.46991%, 55.267334%)" offset="0.8125"/><stop stop-opacity="1" stop-color="rgb(83.081055%, 39.355469%, 54.742432%)" offset="0.816406"/><stop stop-opacity="1" stop-color="rgb(83.255005%, 39.241028%, 54.219055%)" offset="0.820312"/><stop stop-opacity="1" stop-color="rgb(83.427429%, 39.126587%, 53.695679%)" offset="0.824219"/><stop stop-opacity="1" stop-color="rgb(83.599854%, 39.012146%, 53.172302%)" offset="0.828125"/><stop stop-opacity="1" stop-color="rgb(83.772278%, 38.897705%, 52.6474%)" offset="0.832031"/><stop stop-opacity="1" stop-color="rgb(83.944702%, 38.783264%, 52.124023%)" offset="0.835937"/><stop stop-opacity="1" stop-color="rgb(84.117126%, 38.668823%, 51.599121%)" offset="0.839844"/><stop stop-opacity="1" stop-color="rgb(84.291077%, 38.554382%, 51.075745%)" offset="0.84375"/><stop stop-opacity="1" stop-color="rgb(84.463501%, 38.439941%, 50.550842%)" offset="0.847656"/><stop stop-opacity="1" stop-color="rgb(84.635925%, 38.3255%, 50.027466%)" offset="0.851562"/><stop stop-opacity="1" stop-color="rgb(84.80835%, 38.21106%, 49.502563%)" offset="0.855469"/><stop stop-opacity="1" stop-color="rgb(84.980774%, 38.096619%, 48.979187%)" offset="0.859375"/><stop stop-opacity="1" stop-color="rgb(85.153198%, 37.982178%, 48.454285%)" offset="0.863281"/><stop stop-opacity="1" stop-color="rgb(85.327148%, 37.867737%, 47.930908%)" offset="0.867188"/><stop stop-opacity="1" stop-color="rgb(85.499573%, 37.753296%, 47.407532%)" offset="0.871094"/><stop stop-opacity="1" stop-color="rgb(85.671997%, 37.638855%, 46.884155%)" offset="0.875"/><stop stop-opacity="1" stop-color="rgb(85.844421%, 37.524414%, 46.359253%)" offset="0.878906"/><stop stop-opacity="1" stop-color="rgb(86.016846%, 37.409973%, 45.835876%)" offset="0.882812"/><stop stop-opacity="1" stop-color="rgb(86.18927%, 37.295532%, 45.310974%)" offset="0.886719"/><stop stop-opacity="1" stop-color="rgb(86.36322%, 37.181091%, 44.787598%)" offset="0.890625"/><stop stop-opacity="1" stop-color="rgb(86.535645%, 37.06665%, 44.262695%)" offset="0.894531"/><stop stop-opacity="1" stop-color="rgb(86.708069%, 36.952209%, 43.739319%)" offset="0.898438"/><stop stop-opacity="1" stop-color="rgb(86.880493%, 36.837769%, 43.214417%)" offset="0.902344"/><stop stop-opacity="1" stop-color="rgb(87.052917%, 36.723328%, 42.69104%)" offset="0.90625"/><stop stop-opacity="1" stop-color="rgb(87.225342%, 36.608887%, 42.166138%)" offset="0.910156"/><stop stop-opacity="1" stop-color="rgb(87.397766%, 36.494446%, 41.642761%)" offset="0.914062"/><stop stop-opacity="1" stop-color="rgb(87.57019%, 36.380005%, 41.119385%)" offset="0.917969"/><stop stop-opacity="1" stop-color="rgb(87.744141%, 36.265564%, 40.596008%)" offset="0.921875"/><stop stop-opacity="1" stop-color="rgb(87.916565%, 36.151123%, 40.071106%)" offset="0.925781"/><stop stop-opacity="1" stop-color="rgb(88.088989%, 36.036682%, 39.547729%)" offset="0.929687"/><stop stop-opacity="1" stop-color="rgb(88.261414%, 35.922241%, 39.022827%)" offset="0.933594"/><stop stop-opacity="1" stop-color="rgb(88.433838%, 35.8078%, 38.499451%)" offset="0.9375"/><stop stop-opacity="1" stop-color="rgb(88.516235%, 35.752869%, 38.249207%)" offset="0.941406"/><stop stop-opacity="1" stop-color="rgb(88.598633%, 35.699463%, 37.998962%)" offset="0.945312"/><stop stop-opacity="1" stop-color="rgb(88.598633%, 35.699463%, 37.998962%)" offset="0.953125"/><stop stop-opacity="1" stop-color="rgb(88.598633%, 35.699463%, 37.998962%)" offset="0.96875"/><stop stop-opacity="1" stop-color="rgb(88.598633%, 35.699463%, 37.998962%)" offset="1"/></linearGradient></defs><g clip-path="url(#7d81ab2905)"><g clip-path="url(#4d00e5b060)"><path fill="url(#cd7fdff7ef)" d="M 54.855469 54.855469 L 54.855469 712.605469 L 712.605469 712.605469 L 712.605469 54.855469 Z M 54.855469 54.855469 " fill-rule="nonzero"/></g></g></svg>